<svg width="826" height="512" version="1.1" xmlns="http://www.w3.org/2000/svg" desc="Created with imagetracer.js version 1.2.6" ><path fill="rgb(0,0,0)" stroke="rgb(0,0,0)" stroke-width="1" opacity="0" d="M 0 0 L 826 0 L 826 512 L 0 512 L 0 0 Z M 614 3 L 611 9 L 609 24 L 604 37 Q 600 43 593 46 L 573 51 Q 570 52 570 56 L 575 58 L 579 58 L 593 62 L 598 65 Q 604 69 607 78 Q 611 85 611 97 L 613 100 Q 612 103 617 101 L 618 100 L 623 78 L 627 71 L 639 62 L 660 57 L 659 53 L 655 50 L 651 50 L 637 46 L 631 42 Q 625 36 622 28 L 618 5 Q 617 2 614 3 Z M 442 19 L 440 20 L 429 33 Q 370 121 308 207 L 305 206 L 272 173 L 264 170 L 254 173 L 244 185 L 192 263 Q 193 265 191 264 L 183 276 L 182 275 L 177 283 L 175 284 L 177 279 L 177 268 L 172 259 L 175 257 L 176 255 L 170 258 L 161 253 L 141 254 L 118 263 L 110 269 L 104 271 L 93 278 L 73 293 Q 46 315 28 345 L 17 369 L 12 391 L 12 404 L 13 405 L 13 414 L 15 422 L 24 442 L 34 455 L 42 461 L 43 464 L 64 478 L 90 489 L 122 497 L 133 498 L 134 499 L 142 499 L 143 500 L 151 500 L 152 501 L 162 501 L 163 502 L 213 502 L 214 501 L 228 501 L 238 499 L 246 499 L 247 498 L 255 498 L 256 497 L 265 497 L 272 495 L 280 495 L 305 489 L 318 488 L 322 486 L 340 482 L 345 482 L 356 478 L 361 478 L 367 475 L 375 474 L 382 471 L 390 470 L 398 466 L 402 466 L 409 463 L 414 464 L 416 464 L 440 460 L 446 457 L 451 457 L 458 454 L 473 451 L 517 437 L 549 424 L 587 406 L 627 383 L 668 353 L 674 350 L 727 303 Q 729 304 728 302 L 753 281 L 777 256 L 791 237 L 806 209 L 813 185 L 813 160 L 811 152 L 803 134 L 795 123 L 783 111 L 764 100 L 744 93 L 728 90 L 720 90 L 719 89 L 684 89 L 683 90 L 667 91 L 658 94 L 652 94 L 637 99 L 623 107 Q 616 112 614 121 L 606 123 L 614 123 L 614 134 L 615 136 L 617 136 L 628 147 L 649 154 L 654 154 L 666 158 L 678 160 L 690 167 L 693 174 Q 693 187 686 194 L 660 220 L 651 226 L 649 226 L 643 220 Q 644 217 641 218 L 636 210 L 552 98 L 544 91 L 538 91 L 530 95 L 523 107 Q 523 110 519 109 L 458 27 L 450 19 L 442 19 Z M 250 84 L 249 85 L 228 85 L 227 86 L 194 87 L 181 90 L 176 96 L 177 100 L 184 104 L 198 105 L 199 106 L 280 107 L 291 109 L 293 113 L 289 115 L 255 116 L 240 119 L 236 124 L 237 129 Q 241 133 248 135 L 253 136 L 269 136 L 270 137 L 351 137 L 353 136 L 382 94 L 383 87 L 379 84 L 250 84 Z M 160 140 L 159 141 L 141 141 L 127 146 Q 121 149 119 156 L 120 161 L 126 164 L 131 165 L 328 165 Q 329 163 334 164 L 344 150 L 346 144 L 342 140 L 160 140 Z M 102 238 L 99 240 L 94 248 L 94 252 L 97 258 L 103 261 Q 110 262 114 259 L 118 253 Q 119 246 116 243 Q 113 236 102 238 Z " /><path fill="rgb(0,0,0)" stroke="rgb(0,0,0)" stroke-width="1" opacity="0" d="M 445.5 136 L 450 138.5 L 474 167.5 L 478 174.5 L 429 248.5 L 423 259.5 L 423 265.5 L 427.5 268 L 429.5 267 L 429 268.5 L 429.5 270 L 507.5 190 L 511 192.5 L 561 274.5 Q 558.5 276 562 277.5 L 563 280.5 L 512.5 306 L 491.5 314 L 482.5 319 L 479.5 319 L 472.5 323 Q 464.4 323.9 459.5 328 L 452.5 329 L 445.5 333 L 413.5 343 L 410.5 345 L 396.5 348 L 379.5 354 L 375.5 354 L 369.5 357 L 350.5 361 L 343.5 364 L 334.5 365 L 327.5 368 L 312.5 370 L 286.5 376 L 258.5 379 L 253.5 381 L 229.5 382 L 228.5 383 L 213.5 383 L 212.5 384 L 185.5 384 L 184.5 383 L 173 382.5 L 173 380.5 L 177 376.5 L 176 375.5 L 181 370.5 L 284.5 242 L 287.5 242 L 296.5 248 L 391.5 315 L 392 313 Q 396.7 314 398 310.5 Q 398.9 303.1 395 300.5 L 361 264.5 L 361 260.5 L 445.5 136 Z " /><path fill="rgb(0,0,0)" stroke="rgb(0,0,0)" stroke-width="1" opacity="0" d="M 157.5 310 L 158 311.5 L 153 318.5 L 153 320.5 L 128.5 358 L 126 359.5 L 125.5 361 L 125 357.5 L 134 338.5 L 157.5 310 Z " /><path fill="rgb(2,208,202)" stroke="rgb(2,208,202)" stroke-width="1" opacity="0.9921568627450981" d="M 616 6 Q 619.7 4.7 618 10.5 L 625 38.5 L 634.5 49 L 648.5 54 L 660 55 Q 661.3 58 657.5 57 L 638.5 62 Q 629.8 65.8 624.5 73 L 597 50.5 Q 596.3 48.3 598.5 49 L 605 45 L 613 28.5 L 616 13.5 L 616 6 Z " /><path fill="rgb(2,208,202)" stroke="rgb(2,208,202)" stroke-width="1" opacity="0.9921568627450981" d="M 447.5 28 Q 453 27 454 30.5 L 502 94.5 L 519 120.5 L 484.5 169 L 450.5 129 Q 447.2 127.9 448 130.5 L 418 176 L 416 176 L 416 179 Q 413.3 177.9 414 180.5 L 398.5 202 L 385.5 202 L 385 200.5 L 384 200.5 L 383.5 202 L 382.5 200 L 381.5 202 L 380.5 200 L 379.5 202 L 379 200 L 353.5 200 L 353 198.5 L 352 198.5 L 351.5 200 L 351 198 L 337.5 198 L 337 196.5 L 336 196.5 L 335.5 198 L 334.5 196 L 333.5 198 L 333 196 L 331 195.5 L 447.5 28 Z " /><path fill="rgb(2,208,202)" stroke="rgb(2,208,202)" stroke-width="1" opacity="0.9921568627450981" d="M 303.5 89 L 370.5 89 Q 372 91.5 377.5 90 L 379.5 90 Q 383.9 88.5 383 91.5 L 352.5 136 L 305.5 136 L 304.5 135 L 278 135 L 279 132.5 L 279 126.5 L 279 121 L 289.5 121 L 294.5 120 L 299 116.5 L 300 112.5 L 295.5 108 Q 289.9 104.9 281 106 L 282 100.5 L 282 94.5 L 283 92.5 Q 280.8 91.3 283.5 90 L 302.5 90 L 303.5 89 Z " /><path fill="rgb(2,208,202)" stroke="rgb(2,208,202)" stroke-width="1" opacity="0.9921568627450981" d="M 543.5 100 Q 548.6 99.4 550 102.5 L 629 209.5 L 626 210 L 625.5 212 L 624.5 210 L 624 212 L 616.5 212 L 615.5 214 L 608.5 214 L 607.5 216 L 600.5 216 L 598 216.5 Q 598.6 219.3 592.5 218 L 590 218.5 L 589.5 220 L 582.5 220 L 580 220.5 Q 580.6 223.3 574.5 222 L 572 222.5 L 572 224 L 564.5 224 L 564 225.5 L 563 225.5 L 562.5 224 L 562 226 L 556.5 226 L 556 227.5 L 553.5 228 L 546.5 228 L 546 229.5 L 545 229.5 L 544.5 228 L 544 230 L 541 228.5 L 514 184 L 509 187.5 L 445.5 252 L 441 251.5 L 509 148.5 L 522 126 Q 524.7 127.1 524 124.5 L 540.5 101 L 543.5 100 Z " /><path fill="rgb(2,208,202)" stroke="rgb(2,208,202)" stroke-width="1" opacity="0.9921568627450981" d="M 661.5 115 L 697.5 115 L 698.5 116 L 709.5 116 L 732.5 120 L 755.5 129 L 772 143.5 L 777 153.5 L 778 166.5 L 779 167.5 L 778 168.5 L 778 176.5 L 774 189.5 L 765 207.5 Q 747.6 234.1 724.5 255 L 697.5 278 L 644.5 315 L 607.5 337 L 561.5 361 L 559 361 L 558 358.5 L 561 357.5 L 559 357 L 558 354.5 L 561 353.5 L 559 353 L 558 350.5 L 561 349.5 L 559 349 L 558 346.5 L 561 345.5 L 559 345 L 558 342.5 L 561 341.5 L 559 341 L 558 338.5 L 561 337.5 L 559 337 L 558 334.5 L 561 333.5 L 559 333 L 558 330.5 L 561 329.5 L 559 329 L 558 326.5 L 561 325.5 L 559 325 L 558 322.5 L 561 321.5 L 559 321 L 558 318.5 L 561 317.5 L 559 317 L 561.5 313 L 584.5 302 L 645.5 265 Q 680 242.5 707 212.5 Q 717.7 201.2 725 186.5 L 730 173.5 L 731 158.5 Q 728 146.5 719.5 140 L 700.5 130 L 674.5 124 L 663.5 124 L 662.5 123 L 606 122.5 L 631.5 118 L 647.5 117 L 648.5 116 L 660.5 116 L 661.5 115 Z " /><path fill="rgb(2,208,202)" stroke="rgb(2,208,202)" stroke-width="1" opacity="0.9921568627450981" d="M 340.5 145 L 346 145.5 L 333.5 164 L 225 163.5 L 227 162.5 L 227 160.5 Q 225.5 156.1 228.5 157 L 229 154.5 Q 227.8 148.4 230.5 149 L 231.5 146 L 339.5 146 L 340.5 145 Z " /><path fill="rgb(2,208,202)" stroke="rgb(2,208,202)" stroke-width="1" opacity="0.9921568627450981" d="M 643.5 347 L 647.5 347 L 650.5 348 L 653.5 347 L 652.5 349 Q 597.4 391.4 527.5 419 L 525 417.5 L 525 415.5 L 526 413.5 L 525 411.5 L 528 409.5 L 527 407.5 Q 531.8 400.6 542 400 L 542 398 L 547 398 L 547 396.5 L 549.5 396 L 559.5 391 L 563 391 Q 561.6 387 568.5 389 L 568.5 387 L 572.5 387 Q 571.5 384 576.5 385 L 576.5 383 L 578.5 383 L 585 380.5 L 584.5 379 L 586.5 379 Q 589.8 380.1 589 377.5 L 591.5 377 L 593 376.5 L 592.5 375 L 594.5 375 Q 598.3 376 597 373 L 600 373 L 600 371 L 603.5 371 L 603.5 369 L 608 368.5 L 606 367.5 L 611 366.5 L 610.5 365 L 612.5 364 L 614 364.5 Q 613.3 362.3 615.5 363 L 621 360 L 621.5 358 L 623.5 358 Q 625.8 358.8 625 356.5 L 626.5 357 L 636.5 349 L 641.5 348 L 643 348.5 L 643.5 347 Z " /><path fill="rgb(0,0,0)" stroke="rgb(0,0,0)" stroke-width="1" opacity="0.13725490196078433" d="M 614.5 5 Q 617.3 4.4 616 10.5 L 610 35.5 L 605 44 L 595.5 50 L 573.5 56 L 572 53.5 L 573.5 52 L 591.5 48 Q 600.3 44.8 605 37.5 L 609 28.5 L 612 10.5 L 614.5 5 Z " /><path fill="rgb(0,0,0)" stroke="rgb(0,0,0)" stroke-width="1" opacity="0.13725490196078433" d="M 443.5 22 L 449.5 23 L 456 29.5 L 518.5 114 Q 523.5 114.5 524 110.5 Q 528.1 101.1 535.5 95 L 542.5 94 L 549 98.5 L 642 222.5 L 647 231.5 L 646 231.5 Q 598.4 164.1 547.5 100 Q 540.3 98.8 538 102.5 L 523.5 125 Q 489.5 74.5 451.5 28 Q 445 27 444 31.5 Q 377.8 130.3 308.5 226 L 305 223.5 L 264.5 182 Q 262.2 178.8 255.5 180 L 252 182.5 L 227 218.5 L 127.5 371 L 127 369.5 L 226 217.5 L 255.5 176 Q 258.5 173 265.5 174 L 274.5 180 L 299 204.5 L 302.5 209 Q 303.9 211.6 308.5 211 Q 374.1 121.6 436 28.5 L 441.5 23 L 443.5 22 Z " /><path fill="rgb(0,0,0)" stroke="rgb(0,0,0)" stroke-width="1" opacity="0.13725490196078433" d="M 628.5 42 L 635.5 47 L 648.5 51 L 652.5 51 L 657 53.5 L 656.5 55 L 635.5 49 L 628.5 42 Z " /><path fill="rgb(0,0,0)" stroke="rgb(0,0,0)" stroke-width="1" opacity="0.13725490196078433" d="M 600.5 65 Q 607.4 70.1 611 78.5 Q 614.7 87.1 615 98 Q 612 99.3 613 95.5 L 608 76.5 L 600.5 65 Z " /><path fill="rgb(0,0,0)" stroke="rgb(0,0,0)" stroke-width="1" opacity="0.13725490196078433" d="M 302.5 85 L 355.5 85 L 356.5 86 L 378.5 86 L 381 87 L 380.5 89 L 252.5 89 L 251.5 90 L 235.5 90 L 234.5 91 L 216.5 91 L 215.5 92 L 189.5 93 L 183.5 95 L 181 97.5 L 184 101.5 L 182.5 101 L 179 98.5 L 178 96.5 L 180.5 92 L 184.5 90 L 205.5 89 L 206.5 88 L 224.5 88 L 225.5 87 L 243.5 87 L 244.5 86 L 301.5 86 L 302.5 85 Z " /><path fill="rgb(0,0,0)" stroke="rgb(0,0,0)" stroke-width="1" opacity="0.13725490196078433" d="M 293.5 108 L 299 112.5 Q 299.8 117.3 296.5 118 L 291.5 120 L 281.5 120 L 280.5 121 L 247.5 122 L 241 125.5 Q 240.3 129.8 243 130.5 L 238 126.5 Q 237.3 120.8 241.5 120 L 252.5 118 L 287.5 117 L 295 113.5 Q 295.4 108.8 293.5 108 Z " /><path fill="rgb(0,0,0)" stroke="rgb(0,0,0)" stroke-width="1" opacity="0.13725490196078433" d="M 707.5 110 L 728.5 110 L 748.5 114 L 762.5 120 L 778 131 L 791 150.5 L 795 165.5 L 795 181.5 L 790 200.5 L 780 220.5 Q 764.6 244.6 744.5 264 L 741.5 266 L 730.5 277 L 729 277 Q 727.4 279.1 728 284.5 L 729 286.5 L 721 299.5 L 697.5 323 Q 636.7 380.2 555.5 417 L 516.5 433 L 476.5 446 L 441.5 455 L 418.5 458 Q 415.5 457.5 416 453.5 L 420.5 451 L 433.5 449 L 479.5 437 L 515.5 425 Q 553.6 410.6 587.5 392 Q 661.6 351.6 716 291.5 L 725 280.5 L 723.5 280 Q 606.2 366.2 465.5 429 L 466.5 427 L 468 426.5 Q 466.8 423.8 465.5 426 L 460.5 428 L 458.5 428 L 455.5 430 L 453.5 430 L 369.5 457 L 365.5 457 L 354.5 461 L 305.5 472 L 277.5 476 L 271.5 478 L 238.5 481 L 237.5 482 L 210.5 483 L 209.5 484 L 161.5 484 L 160.5 483 L 150.5 483 L 149.5 482 L 141.5 482 L 140.5 481 L 122.5 479 L 89.5 470 Q 61.2 459.8 44 438.5 L 33 417.5 L 31 408.5 L 31 387.5 L 35 371.5 L 44 353.5 Q 55.9 334.9 72.5 321 L 96.5 305 L 91.5 311 L 71 330.5 Q 54.4 347.9 44 371.5 L 40 384.5 L 39 400.5 Q 43.3 424.2 59.5 436 L 76.5 447 L 103.5 457 L 107.5 457 L 121.5 461 L 150.5 464 L 151.5 465 L 153.5 465 L 177.5 466 L 178.5 465 L 214.5 465 L 215.5 464 L 226.5 464 L 227.5 463 L 253.5 461 L 254.5 460 L 260.5 460 L 261.5 459 L 267.5 459 L 285.5 455 L 290.5 455 L 328.5 447 L 400.5 427 L 447.5 411 L 493.5 393 Q 542.7 372.2 588.5 348 L 648.5 313 Q 679.1 293.6 706.5 271 L 743 236.5 Q 760.2 218.2 772 194.5 L 778 177.5 L 779 161.5 Q 776.1 143.9 764.5 135 L 757.5 130 L 736.5 121 L 710.5 116 L 690 114.5 L 707.5 110 Z " /><path fill="rgb(0,0,0)" stroke="rgb(0,0,0)" stroke-width="1" opacity="0.13725490196078433" d="M 678 125 L 690.5 127 L 705.5 132 Q 716.1 135.9 723 143.5 Q 731.3 150.7 731 166.5 L 728 179.5 L 721 193.5 Q 707.7 214.2 689.5 230 Q 648.3 266.8 597.5 294 Q 529.8 331.8 452.5 360 L 384.5 382 L 338.5 394 L 295.5 403 L 290.5 403 L 265.5 408 L 241.5 410 L 240.5 411 L 207.5 412 L 206.5 413 L 179.5 413 L 178.5 412 L 153.5 411 L 126.5 406 L 105.5 398 Q 95.2 392.4 88 383.5 L 82 369.5 L 82 357.5 Q 84.6 342.1 92 331.5 L 115.5 303 L 117.5 302 Q 121.5 303.5 120 310.5 L 106 348.5 L 105 363.5 Q 107.7 378.8 118.5 386 Q 128.3 392.7 141.5 396 L 163.5 400 L 173.5 400 L 174.5 401 L 226.5 401 L 227.5 400 L 240.5 400 L 241.5 399 L 274.5 396 L 327.5 386 L 331.5 384 L 339.5 383 L 392.5 369 L 469.5 343 L 524.5 320 L 586.5 289 L 639.5 257 L 682 224 L 684.5 220 Q 686.8 220.8 686 218.5 L 691 214.5 L 693.5 211 Q 695.8 211.8 695 209.5 Q 705.8 199.3 712 184.5 L 714 169.5 L 711 159.5 L 699.5 146 L 686.5 137 L 679 129.5 L 678 125 Z " /><path fill="rgb(0,0,0)" stroke="rgb(0,0,0)" stroke-width="1" opacity="0.13725490196078433" d="M 449.5 129 L 485 172 Q 487.7 170.9 487 173.5 L 490 175 L 450 237.5 L 433.5 260 L 429.5 261 L 428 258.5 L 434 246.5 L 480 177.5 L 481 170.5 L 448 130.5 L 449.5 129 Z " /><path fill="rgb(0,0,0)" stroke="rgb(0,0,0)" stroke-width="1" opacity="0.13725490196078433" d="M 154.5 142 L 341.5 142 L 344 144.5 L 143.5 146 L 129.5 151 L 124 156.5 L 125 160.5 L 123.5 161 Q 120 160 121 154.5 L 126.5 148 L 134.5 144 L 153.5 143 L 154.5 142 Z " /><path fill="rgb(0,0,0)" stroke="rgb(0,0,0)" stroke-width="1" opacity="0.13725490196078433" d="M 512.5 184 L 572 279.5 L 569.5 280 L 566 278 L 510 186.5 L 512.5 184 Z " /><path fill="rgb(0,0,0)" stroke="rgb(0,0,0)" stroke-width="1" opacity="0.13725490196078433" d="M 279.5 237 L 283 238.5 Q 224.5 314 162.5 386 L 157.5 388 L 161 383.5 Q 222 312 279.5 237 Z " /><path fill="rgb(0,0,0)" stroke="rgb(0,0,0)" stroke-width="1" opacity="0.13725490196078433" d="M 357.5 265 L 384 293.5 L 390 301.5 L 391 305.5 L 388.5 307 Q 380.6 304.9 377 298.5 L 354 274.5 L 353 271.5 L 357.5 265 Z " /><path fill="rgb(0,0,0)" stroke="rgb(0,0,0)" stroke-width="1" opacity="0.13725490196078433" d="M 125.5 378 L 127.5 381 L 125.5 378 Z " /><path fill="rgb(0,0,0)" stroke="rgb(0,0,0)" stroke-width="1" opacity="0.13725490196078433" d="M 150.5 388 L 156 388.5 L 150.5 389 L 150.5 388 Z " /><path fill="rgb(12,204,82)" stroke="rgb(12,204,82)" stroke-width="1" opacity="0.984313725490196" d="M 174.5 255 L 176 255.5 Q 142.3 277.3 114 304.5 Q 97.9 319.9 87 340.5 L 83 351.5 L 82 369.5 Q 85.4 384.6 96.5 392 L 114.5 402 L 126.5 406 L 145.5 410 L 160.5 411 L 161.5 412 L 172.5 412 L 173.5 413 L 206.5 413 Q 208 410.5 213.5 412 L 215.5 412 L 240.5 411 L 241.5 410 L 249.5 410 L 250.5 409 L 257.5 409 L 258.5 408 L 265.5 408 L 282.5 405 L 282.5 406 L 277 407.5 L 279 408.5 L 277 409.5 L 279 410.5 L 277 411.5 L 279 412.5 L 277 413.5 L 279 414.5 L 277 415.5 L 279 416.5 L 277 417.5 L 279 418.5 L 277 419.5 L 279 420.5 L 277 421.5 L 279 422.5 L 277 423.5 L 279 424.5 L 277 425.5 L 279 426.5 L 277 427.5 L 279 428.5 L 277 429.5 L 279 430.5 L 277 431.5 L 279 432.5 L 277 433.5 L 279 434.5 L 277 435.5 L 279 436.5 L 277 437.5 L 279 438.5 L 277 439.5 L 279 440.5 L 277 441.5 L 279 442.5 L 277 443.5 L 279 444.5 L 277 445.5 L 279 446.5 L 277 447.5 L 279 448.5 L 277 449.5 L 279 450.5 L 277 451.5 L 279 452.5 L 277 453.5 L 279 454.5 L 277 455.5 L 277.5 457 L 265.5 458 L 251.5 461 L 224.5 463 L 223.5 464 L 210.5 464 L 209.5 465 L 154.5 465 L 153.5 464 L 143.5 464 L 142.5 463 L 134.5 463 L 133.5 462 L 116.5 460 L 85.5 451 Q 63.9 442.6 50 426.5 L 41 409.5 L 39 400.5 L 39 390.5 L 42 376.5 L 51 357.5 Q 67.4 330.9 90.5 311 Q 127.7 278.2 174.5 255 Z " /><path fill="rgb(12,204,82)" stroke="rgb(12,204,82)" stroke-width="1" opacity="0.984313725490196" d="M 130.5 368 L 135 368.5 L 134.5 370 L 136 370.5 L 135.5 372 L 138 372.5 L 137.5 374 Q 140.1 373.3 139 376 L 141 376 L 141 378 L 143 378 L 143 380 L 145.5 380 L 149 382 L 149 384 L 151 384 Q 149.9 386.7 152.5 386 L 156 387.5 L 148.5 388 L 133.5 384 L 126 378.5 L 125 376.5 L 130.5 368 Z " /><path fill="rgb(12,204,82)" stroke="rgb(12,204,82)" stroke-width="1" opacity="0.984313725490196" d="M 330.5 395 L 333 395.5 L 330.5 396 L 330.5 395 Z " /><path fill="rgb(12,204,82)" stroke="rgb(12,204,82)" stroke-width="1" opacity="0.984313725490196" d="M 325.5 396 L 329 396.5 L 325.5 397 L 325.5 396 Z " /><path fill="rgb(12,204,82)" stroke="rgb(12,204,82)" stroke-width="1" opacity="0.984313725490196" d="M 321.5 397 L 324 397.5 L 321.5 398 L 321.5 397 Z " /><path fill="rgb(12,204,82)" stroke="rgb(12,204,82)" stroke-width="1" opacity="0.984313725490196" d="M 316.5 398 L 320 398.5 L 316.5 399 L 316.5 398 Z " /><path fill="rgb(12,204,82)" stroke="rgb(12,204,82)" stroke-width="1" opacity="0.984313725490196" d="M 311.5 399 L 315 399.5 L 311.5 400 L 311.5 399 Z " /><path fill="rgb(12,204,82)" stroke="rgb(12,204,82)" stroke-width="1" opacity="0.984313725490196" d="M 307.5 400 L 310 400.5 L 307.5 401 L 307.5 400 Z " /><path fill="rgb(12,204,82)" stroke="rgb(12,204,82)" stroke-width="1" opacity="0.984313725490196" d="M 301.5 401 L 305 401.5 L 301.5 402 L 301.5 401 Z " /><path fill="rgb(12,204,82)" stroke="rgb(12,204,82)" stroke-width="1" opacity="0.984313725490196" d="M 297.5 402 L 300 402.5 L 297.5 403 L 297.5 402 Z " /><path fill="rgb(12,204,82)" stroke="rgb(12,204,82)" stroke-width="1" opacity="0.984313725490196" d="M 290.5 403 L 295 403.5 L 290.5 404 L 290.5 403 Z " /><path fill="rgb(12,204,82)" stroke="rgb(12,204,82)" stroke-width="1" opacity="0.984313725490196" d="M 285.5 404 L 289 404.5 L 285.5 405 L 285.5 404 Z " /><path fill="rgb(2,136,151)" stroke="rgb(2,136,151)" stroke-width="1" opacity="0.9450980392156862" d="M 615.5 11 L 616 13.5 L 615 13.5 L 615.5 11 Z " /><path fill="rgb(2,136,151)" stroke="rgb(2,136,151)" stroke-width="1" opacity="0.9450980392156862" d="M 614.5 16 L 615 19.5 L 614 19.5 L 614.5 16 Z " /><path fill="rgb(2,136,151)" stroke="rgb(2,136,151)" stroke-width="1" opacity="0.9450980392156862" d="M 613.5 22 L 614 24.5 L 613 24.5 L 613.5 22 Z " /><path fill="rgb(2,136,151)" stroke="rgb(2,136,151)" stroke-width="1" opacity="0.9450980392156862" d="M 445.5 30 L 444.5 32 L 445.5 30 Z " /><path fill="rgb(2,136,151)" stroke="rgb(2,136,151)" stroke-width="1" opacity="0.9450980392156862" d="M 443.5 33 L 442.5 35 L 443.5 33 Z " /><path fill="rgb(2,136,151)" stroke="rgb(2,136,151)" stroke-width="1" opacity="0.9450980392156862" d="M 440.5 37 L 439.5 39 L 440.5 37 Z " /><path fill="rgb(2,136,151)" stroke="rgb(2,136,151)" stroke-width="1" opacity="0.9450980392156862" d="M 438.5 40 L 437.5 42 L 438.5 40 Z " /><path fill="rgb(2,136,151)" stroke="rgb(2,136,151)" stroke-width="1" opacity="0.9450980392156862" d="M 607.5 40 L 605.5 43 L 607.5 40 Z " /><path fill="rgb(2,136,151)" stroke="rgb(2,136,151)" stroke-width="1" opacity="0.9450980392156862" d="M 436.5 43 L 435.5 45 L 436.5 43 Z " /><path fill="rgb(2,136,151)" stroke="rgb(2,136,151)" stroke-width="1" opacity="0.9450980392156862" d="M 603.5 44 L 605 44.5 L 600.5 48 L 603.5 44 Z " /><path fill="rgb(2,136,151)" stroke="rgb(2,136,151)" stroke-width="1" opacity="0.9450980392156862" d="M 434.5 46 L 432.5 49 L 434.5 46 Z " /><path fill="rgb(2,136,151)" stroke="rgb(2,136,151)" stroke-width="1" opacity="0.9450980392156862" d="M 632.5 46 L 634.5 49 L 632.5 46 Z " /><path fill="rgb(2,136,151)" stroke="rgb(2,136,151)" stroke-width="1" opacity="0.9450980392156862" d="M 596.5 49 L 598.5 52 L 624.5 73 L 627 71.5 L 623 77.5 L 618 99.5 L 616.5 101 L 611 78.5 Q 607.4 70.1 600.5 65 L 589.5 60 L 573 56.5 L 574.5 55 Q 587.5 54 596.5 49 Z " /><path fill="rgb(2,136,151)" stroke="rgb(2,136,151)" stroke-width="1" opacity="0.9450980392156862" d="M 636.5 49 L 640 50.5 L 638.5 51 L 636.5 49 Z " /><path fill="rgb(2,136,151)" stroke="rgb(2,136,151)" stroke-width="1" opacity="0.9450980392156862" d="M 431.5 50 L 430.5 52 L 431.5 50 Z " /><path fill="rgb(2,136,151)" stroke="rgb(2,136,151)" stroke-width="1" opacity="0.9450980392156862" d="M 429.5 53 L 428.5 55 L 429.5 53 Z " /><path fill="rgb(2,136,151)" stroke="rgb(2,136,151)" stroke-width="1" opacity="0.9450980392156862" d="M 648.5 53 L 651 53.5 L 648.5 54 L 648.5 53 Z " /><path fill="rgb(2,136,151)" stroke="rgb(2,136,151)" stroke-width="1" opacity="0.9450980392156862" d="M 427.5 56 L 426.5 58 L 427.5 56 Z " /><path fill="rgb(2,136,151)" stroke="rgb(2,136,151)" stroke-width="1" opacity="0.9450980392156862" d="M 425.5 59 L 424.5 61 L 425.5 59 Z " /><path fill="rgb(2,136,151)" stroke="rgb(2,136,151)" stroke-width="1" opacity="0.9450980392156862" d="M 422.5 63 L 421.5 65 L 422.5 63 Z " /><path fill="rgb(2,136,151)" stroke="rgb(2,136,151)" stroke-width="1" opacity="0.9450980392156862" d="M 420.5 66 L 419.5 68 L 420.5 66 Z " /><path fill="rgb(2,136,151)" stroke="rgb(2,136,151)" stroke-width="1" opacity="0.9450980392156862" d="M 418.5 69 L 417.5 71 L 418.5 69 Z " /><path fill="rgb(2,136,151)" stroke="rgb(2,136,151)" stroke-width="1" opacity="0.9450980392156862" d="M 416.5 72 L 415.5 74 L 416.5 72 Z " /><path fill="rgb(2,136,151)" stroke="rgb(2,136,151)" stroke-width="1" opacity="0.9450980392156862" d="M 485.5 72 L 486.5 74 L 485.5 72 Z " /><path fill="rgb(2,136,151)" stroke="rgb(2,136,151)" stroke-width="1" opacity="0.9450980392156862" d="M 414.5 75 L 412.5 78 L 414.5 75 Z " /><path fill="rgb(2,136,151)" stroke="rgb(2,136,151)" stroke-width="1" opacity="0.9450980392156862" d="M 411.5 79 L 410.5 81 L 411.5 79 Z " /><path fill="rgb(2,136,151)" stroke="rgb(2,136,151)" stroke-width="1" opacity="0.9450980392156862" d="M 409.5 82 L 408.5 84 L 409.5 82 Z " /><path fill="rgb(2,136,151)" stroke="rgb(2,136,151)" stroke-width="1" opacity="0.9450980392156862" d="M 407.5 85 L 406.5 87 L 407.5 85 Z " /><path fill="rgb(2,136,151)" stroke="rgb(2,136,151)" stroke-width="1" opacity="0.9450980392156862" d="M 405.5 88 L 404.5 90 L 405.5 88 Z " /><path fill="rgb(2,136,151)" stroke="rgb(2,136,151)" stroke-width="1" opacity="0.9450980392156862" d="M 252.5 89 L 303 89.5 L 283.5 90 L 282 91.5 L 282 93.5 L 281 95.5 L 281 101.5 Q 281.5 106 280.5 106 L 246.5 106 L 245.5 105 L 201.5 105 L 200.5 104 L 191.5 104 L 184.5 102 L 181 98.5 L 183.5 95 L 189.5 93 L 199.5 93 L 200.5 92 L 234.5 91 L 235.5 90 L 251.5 90 L 252.5 89 Z " /><path fill="rgb(2,136,151)" stroke="rgb(2,136,151)" stroke-width="1" opacity="0.9450980392156862" d="M 371.5 89 L 378 89.5 L 371.5 90 L 371.5 89 Z " /><path fill="rgb(2,136,151)" stroke="rgb(2,136,151)" stroke-width="1" opacity="0.9450980392156862" d="M 403.5 91 L 401.5 94 L 403.5 91 Z " /><path fill="rgb(2,136,151)" stroke="rgb(2,136,151)" stroke-width="1" opacity="0.9450980392156862" d="M 400.5 95 L 399.5 97 L 400.5 95 Z " /><path fill="rgb(2,136,151)" stroke="rgb(2,136,151)" stroke-width="1" opacity="0.9450980392156862" d="M 398.5 98 L 397.5 100 L 398.5 98 Z " /><path fill="rgb(2,136,151)" stroke="rgb(2,136,151)" stroke-width="1" opacity="0.9450980392156862" d="M 396.5 101 L 395.5 103 L 396.5 101 Z " /><path fill="rgb(2,136,151)" stroke="rgb(2,136,151)" stroke-width="1" opacity="0.9450980392156862" d="M 539.5 101 L 538.5 103 L 539.5 101 Z " /><path fill="rgb(2,136,151)" stroke="rgb(2,136,151)" stroke-width="1" opacity="0.9450980392156862" d="M 394.5 104 L 393.5 106 L 394.5 104 Z " /><path fill="rgb(2,136,151)" stroke="rgb(2,136,151)" stroke-width="1" opacity="0.9450980392156862" d="M 537.5 104 L 536.5 106 L 537.5 104 Z " /><path fill="rgb(2,136,151)" stroke="rgb(2,136,151)" stroke-width="1" opacity="0.9450980392156862" d="M 509.5 105 L 510.5 107 L 509.5 105 Z " /><path fill="rgb(2,136,151)" stroke="rgb(2,136,151)" stroke-width="1" opacity="0.9450980392156862" d="M 283.5 106 L 290 106.5 L 283.5 107 L 283.5 106 Z " /><path fill="rgb(2,136,151)" stroke="rgb(2,136,151)" stroke-width="1" opacity="0.9450980392156862" d="M 535.5 107 L 534.5 109 L 535.5 107 Z " /><path fill="rgb(2,136,151)" stroke="rgb(2,136,151)" stroke-width="1" opacity="0.9450980392156862" d="M 553.5 107 L 554.5 109 L 553.5 107 Z " /><path fill="rgb(2,136,151)" stroke="rgb(2,136,151)" stroke-width="1" opacity="0.9450980392156862" d="M 294.5 108 L 300 112.5 L 299.5 115 L 295.5 109 L 294.5 108 Z " /><path fill="rgb(2,136,151)" stroke="rgb(2,136,151)" stroke-width="1" opacity="0.9450980392156862" d="M 391.5 108 L 390.5 110 L 391.5 108 Z " /><path fill="rgb(2,136,151)" stroke="rgb(2,136,151)" stroke-width="1" opacity="0.9450980392156862" d="M 533.5 110 L 532.5 112 L 533.5 110 Z " /><path fill="rgb(2,136,151)" stroke="rgb(2,136,151)" stroke-width="1" opacity="0.9450980392156862" d="M 389.5 111 L 388.5 113 L 389.5 111 Z " /><path fill="rgb(2,136,151)" stroke="rgb(2,136,151)" stroke-width="1" opacity="0.9450980392156862" d="M 514.5 112 L 515.5 114 L 514.5 112 Z " /><path fill="rgb(2,136,151)" stroke="rgb(2,136,151)" stroke-width="1" opacity="0.9450980392156862" d="M 531.5 113 L 530.5 115 L 531.5 113 Z " /><path fill="rgb(2,136,151)" stroke="rgb(2,136,151)" stroke-width="1" opacity="0.9450980392156862" d="M 387.5 114 L 386.5 116 L 387.5 114 Z " /><path fill="rgb(2,136,151)" stroke="rgb(2,136,151)" stroke-width="1" opacity="0.9450980392156862" d="M 516.5 115 L 517.5 117 L 516.5 115 Z " /><path fill="rgb(2,136,151)" stroke="rgb(2,136,151)" stroke-width="1" opacity="0.9450980392156862" d="M 698.5 115 L 701 115.5 L 698.5 116 L 698.5 115 Z " /><path fill="rgb(2,136,151)" stroke="rgb(2,136,151)" stroke-width="1" opacity="0.9450980392156862" d="M 298.5 116 L 296.5 119 L 292.5 120 L 292.5 119 L 298.5 116 Z " /><path fill="rgb(2,136,151)" stroke="rgb(2,136,151)" stroke-width="1" opacity="0.9450980392156862" d="M 529.5 116 L 528.5 118 L 529.5 116 Z " /><path fill="rgb(2,136,151)" stroke="rgb(2,136,151)" stroke-width="1" opacity="0.9450980392156862" d="M 385.5 117 L 383.5 120 L 385.5 117 Z " /><path fill="rgb(2,136,151)" stroke="rgb(2,136,151)" stroke-width="1" opacity="0.9450980392156862" d="M 518.5 118 L 524 125.5 L 522 126 L 516 137.5 L 490.5 176 L 487 173.5 L 485 170.5 L 480.5 165 L 484.5 169 L 488 165.5 L 519 119.5 L 518.5 118 Z " /><path fill="rgb(2,136,151)" stroke="rgb(2,136,151)" stroke-width="1" opacity="0.9450980392156862" d="M 527.5 119 L 526.5 121 L 527.5 119 Z " /><path fill="rgb(2,136,151)" stroke="rgb(2,136,151)" stroke-width="1" opacity="0.9450980392156862" d="M 281.5 120 L 290 120.5 L 281.5 121 L 281.5 120 Z " /><path fill="rgb(2,136,151)" stroke="rgb(2,136,151)" stroke-width="1" opacity="0.9450980392156862" d="M 563.5 120 L 564.5 122 L 563.5 120 Z " /><path fill="rgb(2,136,151)" stroke="rgb(2,136,151)" stroke-width="1" opacity="0.9450980392156862" d="M 257.5 121 L 278.5 121 Q 279.6 121.1 279 126.5 L 278 133.5 L 278.5 135 L 304.5 135 L 304.5 136 L 255.5 135 L 244.5 132 L 241 128.5 Q 240.3 124.8 242.5 124 L 247.5 122 L 256.5 122 L 257.5 121 Z " /><path fill="rgb(2,136,151)" stroke="rgb(2,136,151)" stroke-width="1" opacity="0.9450980392156862" d="M 382.5 121 L 381.5 123 L 382.5 121 Z " /><path fill="rgb(2,136,151)" stroke="rgb(2,136,151)" stroke-width="1" opacity="0.9450980392156862" d="M 525.5 122 L 524.5 124 L 525.5 122 Z " /><path fill="rgb(2,136,151)" stroke="rgb(2,136,151)" stroke-width="1" opacity="0.9450980392156862" d="M 380.5 124 L 379.5 126 L 380.5 124 Z " /><path fill="rgb(2,136,151)" stroke="rgb(2,136,151)" stroke-width="1" opacity="0.9450980392156862" d="M 566.5 124 L 567.5 126 L 566.5 124 Z " /><path fill="rgb(2,136,151)" stroke="rgb(2,136,151)" stroke-width="1" opacity="0.9450980392156862" d="M 378.5 127 L 377 129.5 L 374.5 133 L 376 130.5 L 378.5 127 Z " /><path fill="rgb(2,136,151)" stroke="rgb(2,136,151)" stroke-width="1" opacity="0.9450980392156862" d="M 569.5 128 L 570.5 130 L 569.5 128 Z " /><path fill="rgb(2,136,151)" stroke="rgb(2,136,151)" stroke-width="1" opacity="0.9450980392156862" d="M 450.5 129 L 453.5 133 L 450.5 129 Z " /><path fill="rgb(2,136,151)" stroke="rgb(2,136,151)" stroke-width="1" opacity="0.9450980392156862" d="M 373.5 134 L 372.5 136 L 373.5 134 Z " /><path fill="rgb(2,136,151)" stroke="rgb(2,136,151)" stroke-width="1" opacity="0.9450980392156862" d="M 455.5 135 L 459.5 140 L 455.5 135 Z " /><path fill="rgb(2,136,151)" stroke="rgb(2,136,151)" stroke-width="1" opacity="0.9450980392156862" d="M 764.5 135 L 769.5 141 L 764.5 135 Z " /><path fill="rgb(2,136,151)" stroke="rgb(2,136,151)" stroke-width="1" opacity="0.9450980392156862" d="M 371.5 137 L 369.5 140 L 371.5 137 Z " /><path fill="rgb(2,136,151)" stroke="rgb(2,136,151)" stroke-width="1" opacity="0.9450980392156862" d="M 368.5 141 L 367.5 143 L 368.5 141 Z " /><path fill="rgb(2,136,151)" stroke="rgb(2,136,151)" stroke-width="1" opacity="0.9450980392156862" d="M 461.5 142 L 464.5 146 L 461.5 142 Z " /><path fill="rgb(2,136,151)" stroke="rgb(2,136,151)" stroke-width="1" opacity="0.9450980392156862" d="M 366.5 144 L 365 146.5 L 362.5 150 L 364 147.5 L 366.5 144 Z " /><path fill="rgb(2,136,151)" stroke="rgb(2,136,151)" stroke-width="1" opacity="0.9450980392156862" d="M 723.5 144 L 724.5 146 L 723.5 144 Z " /><path fill="rgb(2,136,151)" stroke="rgb(2,136,151)" stroke-width="1" opacity="0.9450980392156862" d="M 185.5 145 L 340 145.5 L 231.5 146 L 230 147.5 L 230.5 149 Q 227.8 148.4 229 154.5 L 228.5 157 Q 225.5 156.1 227 160.5 L 226.5 163 L 224.5 164 L 132.5 164 L 125 162 L 124 156.5 L 129.5 151 L 143.5 146 L 184.5 146 L 185.5 145 Z " /><path fill="rgb(2,136,151)" stroke="rgb(2,136,151)" stroke-width="1" opacity="0.9450980392156862" d="M 466.5 148 L 468.5 151 L 466.5 148 Z " /><path fill="rgb(2,136,151)" stroke="rgb(2,136,151)" stroke-width="1" opacity="0.9450980392156862" d="M 584.5 148 L 585.5 150 L 584.5 148 Z " /><path fill="rgb(2,136,151)" stroke="rgb(2,136,151)" stroke-width="1" opacity="0.9450980392156862" d="M 361.5 151 L 360.5 153 L 361.5 151 Z " /><path fill="rgb(2,136,151)" stroke="rgb(2,136,151)" stroke-width="1" opacity="0.9450980392156862" d="M 586.5 151 L 588.5 154 L 586.5 151 Z " /><path fill="rgb(2,136,151)" stroke="rgb(2,136,151)" stroke-width="1" opacity="0.9450980392156862" d="M 470.5 153 L 480 163.5 L 475 159.5 L 470.5 153 Z " /><path fill="rgb(2,136,151)" stroke="rgb(2,136,151)" stroke-width="1" opacity="0.9450980392156862" d="M 359.5 154 L 358 156.5 L 355.5 160 L 357 157.5 L 359.5 154 Z " /><path fill="rgb(2,136,151)" stroke="rgb(2,136,151)" stroke-width="1" opacity="0.9450980392156862" d="M 589.5 155 L 591.5 158 L 589.5 155 Z " /><path fill="rgb(2,136,151)" stroke="rgb(2,136,151)" stroke-width="1" opacity="0.9450980392156862" d="M 592.5 159 L 594.5 162 L 592.5 159 Z " /><path fill="rgb(2,136,151)" stroke="rgb(2,136,151)" stroke-width="1" opacity="0.9450980392156862" d="M 354.5 161 L 353.5 163 L 354.5 161 Z " /><path fill="rgb(2,136,151)" stroke="rgb(2,136,151)" stroke-width="1" opacity="0.9450980392156862" d="M 778.5 161 L 779 166.5 L 778 166.5 L 778.5 161 Z " /><path fill="rgb(2,136,151)" stroke="rgb(2,136,151)" stroke-width="1" opacity="0.9450980392156862" d="M 595.5 163 L 596.5 165 L 595.5 163 Z " /><path fill="rgb(2,136,151)" stroke="rgb(2,136,151)" stroke-width="1" opacity="0.9450980392156862" d="M 352.5 164 L 351 166.5 L 348.5 170 L 350 167.5 L 352.5 164 Z " /><path fill="rgb(2,136,151)" stroke="rgb(2,136,151)" stroke-width="1" opacity="0.9450980392156862" d="M 598.5 167 L 599.5 169 L 598.5 167 Z " /><path fill="rgb(2,136,151)" stroke="rgb(2,136,151)" stroke-width="1" opacity="0.9450980392156862" d="M 778.5 168 L 779 170.5 L 778 170.5 L 778.5 168 Z " /><path fill="rgb(2,136,151)" stroke="rgb(2,136,151)" stroke-width="1" opacity="0.9450980392156862" d="M 347.5 171 L 346.5 173 L 347.5 171 Z " /><path fill="rgb(2,136,151)" stroke="rgb(2,136,151)" stroke-width="1" opacity="0.9450980392156862" d="M 601.5 171 L 602.5 173 L 601.5 171 Z " /><path fill="rgb(2,136,151)" stroke="rgb(2,136,151)" stroke-width="1" opacity="0.9450980392156862" d="M 345.5 174 L 343.5 177 L 345.5 174 Z " /><path fill="rgb(2,136,151)" stroke="rgb(2,136,151)" stroke-width="1" opacity="0.9450980392156862" d="M 604.5 175 L 605.5 177 L 604.5 175 Z " /><path fill="rgb(2,136,151)" stroke="rgb(2,136,151)" stroke-width="1" opacity="0.9450980392156862" d="M 489.5 177 L 488.5 179 L 489.5 177 Z " /><path fill="rgb(2,136,151)" stroke="rgb(2,136,151)" stroke-width="1" opacity="0.9450980392156862" d="M 342.5 178 L 341.5 180 L 342.5 178 Z " /><path fill="rgb(2,136,151)" stroke="rgb(2,136,151)" stroke-width="1" opacity="0.9450980392156862" d="M 607.5 179 L 620 195.5 L 617 193.5 L 608 181.5 L 607.5 179 Z " /><path fill="rgb(2,136,151)" stroke="rgb(2,136,151)" stroke-width="1" opacity="0.9450980392156862" d="M 259.5 180 L 262 180.5 L 259.5 181 L 259.5 180 Z " /><path fill="rgb(2,136,151)" stroke="rgb(2,136,151)" stroke-width="1" opacity="0.9450980392156862" d="M 487.5 180 L 486.5 182 L 487.5 180 Z " /><path fill="rgb(2,136,151)" stroke="rgb(2,136,151)" stroke-width="1" opacity="0.9450980392156862" d="M 340.5 181 L 339 183.5 L 336.5 187 L 338 184.5 L 340.5 181 Z " /><path fill="rgb(2,136,151)" stroke="rgb(2,136,151)" stroke-width="1" opacity="0.9450980392156862" d="M 413.5 181 L 412.5 183 L 413.5 181 Z " /><path fill="rgb(2,136,151)" stroke="rgb(2,136,151)" stroke-width="1" opacity="0.9450980392156862" d="M 264.5 182 L 304.5 223 L 264.5 182 Z " /><path fill="rgb(2,136,151)" stroke="rgb(2,136,151)" stroke-width="1" opacity="0.9450980392156862" d="M 485.5 183 L 484.5 185 L 485.5 183 Z " /><path fill="rgb(2,136,151)" stroke="rgb(2,136,151)" stroke-width="1" opacity="0.9450980392156862" d="M 411.5 184 L 410 186.5 L 405.5 193 L 407 190.5 L 411.5 184 Z " /><path fill="rgb(2,136,151)" stroke="rgb(2,136,151)" stroke-width="1" opacity="0.9450980392156862" d="M 483.5 186 L 482.5 188 L 483.5 186 Z " /><path fill="rgb(2,136,151)" stroke="rgb(2,136,151)" stroke-width="1" opacity="0.9450980392156862" d="M 335.5 188 L 334.5 190 L 335.5 188 Z " /><path fill="rgb(2,136,151)" stroke="rgb(2,136,151)" stroke-width="1" opacity="0.9450980392156862" d="M 481.5 189 L 480.5 191 L 481.5 189 Z " /><path fill="rgb(2,136,151)" stroke="rgb(2,136,151)" stroke-width="1" opacity="0.9450980392156862" d="M 516.5 189 L 523 198.5 L 521 197.5 L 516.5 189 Z " /><path fill="rgb(2,136,151)" stroke="rgb(2,136,151)" stroke-width="1" opacity="0.9450980392156862" d="M 333.5 191 L 332 193.5 L 331 195.5 L 333 196 L 333.5 198 L 334.5 196 L 335.5 198 L 336.5 196 L 337 198 L 350.5 198 L 351 199.5 L 352 199.5 L 352.5 198 L 353 200 L 378.5 200 L 379 201.5 L 380 201.5 L 380.5 200 L 381.5 202 L 382.5 200 L 383.5 202 L 384.5 200 L 385 202 L 398.5 202 L 400.5 200 L 399 202.5 L 353 272.5 L 353.5 274 L 308 226.5 L 328.5 198 L 330 197.5 Q 327.5 196 331 194.5 L 333.5 191 Z " /><path fill="rgb(2,136,151)" stroke="rgb(2,136,151)" stroke-width="1" opacity="0.9450980392156862" d="M 479.5 192 L 478.5 194 L 479.5 192 Z " /><path fill="rgb(2,136,151)" stroke="rgb(2,136,151)" stroke-width="1" opacity="0.9450980392156862" d="M 404.5 194 L 403.5 196 L 404.5 194 Z " /><path fill="rgb(2,136,151)" stroke="rgb(2,136,151)" stroke-width="1" opacity="0.9450980392156862" d="M 477.5 195 L 476.5 197 L 477.5 195 Z " /><path fill="rgb(2,136,151)" stroke="rgb(2,136,151)" stroke-width="1" opacity="0.9450980392156862" d="M 402.5 197 L 401.5 199 L 402.5 197 Z " /><path fill="rgb(2,136,151)" stroke="rgb(2,136,151)" stroke-width="1" opacity="0.9450980392156862" d="M 620.5 197 L 622.5 200 L 620.5 197 Z " /><path fill="rgb(2,136,151)" stroke="rgb(2,136,151)" stroke-width="1" opacity="0.9450980392156862" d="M 475.5 198 L 475 199.5 L 469.5 208 L 470 206.5 L 475.5 198 Z " /><path fill="rgb(2,136,151)" stroke="rgb(2,136,151)" stroke-width="1" opacity="0.9450980392156862" d="M 523.5 200 L 531 211.5 L 529 210.5 L 523.5 200 Z " /><path fill="rgb(2,136,151)" stroke="rgb(2,136,151)" stroke-width="1" opacity="0.9450980392156862" d="M 623.5 201 L 650 236.5 L 638.5 246 L 609.5 264 L 576.5 282 L 573.5 282 L 539 226.5 L 541 227.5 L 542.5 230 Q 544.8 230.8 544 228.5 L 545 228.5 L 545.5 230 L 546 228 L 553.5 228 L 554.5 227 L 556 227.5 L 556 226 L 561.5 226 L 562 224.5 L 563 224.5 L 563.5 226 L 564 224 L 571.5 224 L 572 222.5 L 574.5 222 Q 580.6 223.3 580 220.5 L 582.5 220 L 589.5 220 L 590 218.5 L 592.5 218 Q 598.6 219.3 598 216.5 L 600.5 216 L 607.5 216 L 608.5 214 L 615.5 214 L 616 212 L 623.5 212 L 624 210.5 L 625 210.5 L 625.5 212 L 626 210 L 629 209.5 L 623.5 201 Z " /><path fill="rgb(2,136,151)" stroke="rgb(2,136,151)" stroke-width="1" opacity="0.9450980392156862" d="M 468.5 209 L 467.5 211 L 468.5 209 Z " /><path fill="rgb(2,136,151)" stroke="rgb(2,136,151)" stroke-width="1" opacity="0.9450980392156862" d="M 466.5 212 L 465.5 214 L 466.5 212 Z " /><path fill="rgb(2,136,151)" stroke="rgb(2,136,151)" stroke-width="1" opacity="0.9450980392156862" d="M 531.5 213 L 539 224.5 L 537 223.5 L 531.5 213 Z " /><path fill="rgb(2,136,151)" stroke="rgb(2,136,151)" stroke-width="1" opacity="0.9450980392156862" d="M 464.5 215 L 463.5 217 L 464.5 215 Z " /><path fill="rgb(2,136,151)" stroke="rgb(2,136,151)" stroke-width="1" opacity="0.9450980392156862" d="M 462.5 218 L 461.5 220 L 462.5 218 Z " /><path fill="rgb(2,136,151)" stroke="rgb(2,136,151)" stroke-width="1" opacity="0.9450980392156862" d="M 460.5 221 L 459.5 223 L 460.5 221 Z " /><path fill="rgb(2,136,151)" stroke="rgb(2,136,151)" stroke-width="1" opacity="0.9450980392156862" d="M 458.5 224 L 457.5 226 L 458.5 224 Z " /><path fill="rgb(2,136,151)" stroke="rgb(2,136,151)" stroke-width="1" opacity="0.9450980392156862" d="M 456.5 227 L 455.5 229 L 456.5 227 Z " /><path fill="rgb(2,136,151)" stroke="rgb(2,136,151)" stroke-width="1" opacity="0.9450980392156862" d="M 454.5 230 L 454 231.5 L 450.5 237 L 451 235.5 L 454.5 230 Z " /><path fill="rgb(2,136,151)" stroke="rgb(2,136,151)" stroke-width="1" opacity="0.9450980392156862" d="M 688.5 230 L 684.5 235 L 688.5 230 Z " /><path fill="rgb(2,136,151)" stroke="rgb(2,136,151)" stroke-width="1" opacity="0.9450980392156862" d="M 462.5 235 L 441 257.5 L 429.5 270 L 429 268.5 L 441.5 250 L 441.5 252 L 445.5 252 L 462.5 235 Z " /><path fill="rgb(2,136,151)" stroke="rgb(2,136,151)" stroke-width="1" opacity="0.9450980392156862" d="M 742.5 236 L 740.5 239 L 742.5 236 Z " /><path fill="rgb(2,136,151)" stroke="rgb(2,136,151)" stroke-width="1" opacity="0.9450980392156862" d="M 449.5 238 L 448.5 240 L 449.5 238 Z " /><path fill="rgb(2,136,151)" stroke="rgb(2,136,151)" stroke-width="1" opacity="0.9450980392156862" d="M 679.5 238 L 678.5 240 L 679.5 238 Z " /><path fill="rgb(2,136,151)" stroke="rgb(2,136,151)" stroke-width="1" opacity="0.9450980392156862" d="M 447.5 241 L 446.5 243 L 447.5 241 Z " /><path fill="rgb(2,136,151)" stroke="rgb(2,136,151)" stroke-width="1" opacity="0.9450980392156862" d="M 445.5 244 L 444.5 246 L 445.5 244 Z " /><path fill="rgb(2,136,151)" stroke="rgb(2,136,151)" stroke-width="1" opacity="0.9450980392156862" d="M 443.5 247 L 442.5 249 L 443.5 247 Z " /><path fill="rgb(2,136,151)" stroke="rgb(2,136,151)" stroke-width="1" opacity="0.9450980392156862" d="M 205.5 252 L 204.5 254 L 205.5 252 Z " /><path fill="rgb(2,136,151)" stroke="rgb(2,136,151)" stroke-width="1" opacity="0.9450980392156862" d="M 203.5 255 L 202.5 257 L 203.5 255 Z " /><path fill="rgb(2,136,151)" stroke="rgb(2,136,151)" stroke-width="1" opacity="0.9450980392156862" d="M 723.5 255 L 721.5 258 L 723.5 255 Z " /><path fill="rgb(2,136,151)" stroke="rgb(2,136,151)" stroke-width="1" opacity="0.9450980392156862" d="M 201.5 258 L 200.5 260 L 201.5 258 Z " /><path fill="rgb(2,136,151)" stroke="rgb(2,136,151)" stroke-width="1" opacity="0.9450980392156862" d="M 199.5 261 L 198.5 263 L 199.5 261 Z " /><path fill="rgb(2,136,151)" stroke="rgb(2,136,151)" stroke-width="1" opacity="0.9450980392156862" d="M 197.5 264 L 196.5 266 L 197.5 264 Z " /><path fill="rgb(2,136,151)" stroke="rgb(2,136,151)" stroke-width="1" opacity="0.9450980392156862" d="M 713.5 264 L 712.5 266 L 713.5 264 Z " /><path fill="rgb(2,136,151)" stroke="rgb(2,136,151)" stroke-width="1" opacity="0.9450980392156862" d="M 195.5 267 L 195 268.5 L 193.5 271 L 194 269.5 L 195.5 267 Z " /><path fill="rgb(2,136,151)" stroke="rgb(2,136,151)" stroke-width="1" opacity="0.9450980392156862" d="M 707.5 269 L 706.5 271 L 707.5 269 Z " /><path fill="rgb(2,136,151)" stroke="rgb(2,136,151)" stroke-width="1" opacity="0.9450980392156862" d="M 192.5 272 L 191.5 274 L 192.5 272 Z " /><path fill="rgb(2,136,151)" stroke="rgb(2,136,151)" stroke-width="1" opacity="0.9450980392156862" d="M 190.5 275 L 189.5 277 L 190.5 275 Z " /><path fill="rgb(2,136,151)" stroke="rgb(2,136,151)" stroke-width="1" opacity="0.9450980392156862" d="M 248.5 276 L 245.5 280 L 248.5 276 Z " /><path fill="rgb(2,136,151)" stroke="rgb(2,136,151)" stroke-width="1" opacity="0.9450980392156862" d="M 188.5 278 L 187.5 280 L 188.5 278 Z " /><path fill="rgb(2,136,151)" stroke="rgb(2,136,151)" stroke-width="1" opacity="0.9450980392156862" d="M 723.5 280 L 725 280.5 Q 705.9 304.9 682.5 325 L 653.5 349 L 653.5 347 L 650.5 348 L 647.5 347 L 643 347.5 L 642.5 349 L 640.5 349 L 625.5 349 L 624.5 350 L 620.5 350 L 617.5 351 L 618.5 349 Q 674.5 318 723.5 280 Z " /><path fill="rgb(2,136,151)" stroke="rgb(2,136,151)" stroke-width="1" opacity="0.9450980392156862" d="M 186.5 281 L 185.5 283 L 186.5 281 Z " /><path fill="rgb(2,136,151)" stroke="rgb(2,136,151)" stroke-width="1" opacity="0.9450980392156862" d="M 244.5 281 L 241.5 285 L 244.5 281 Z " /><path fill="rgb(2,136,151)" stroke="rgb(2,136,151)" stroke-width="1" opacity="0.9450980392156862" d="M 360.5 281 L 365.5 287 L 360.5 281 Z " /><path fill="rgb(2,136,151)" stroke="rgb(2,136,151)" stroke-width="1" opacity="0.9450980392156862" d="M 692.5 281 L 691.5 283 L 692.5 281 Z " /><path fill="rgb(2,136,151)" stroke="rgb(2,136,151)" stroke-width="1" opacity="0.9450980392156862" d="M 184.5 284 L 183.5 286 L 184.5 284 Z " /><path fill="rgb(2,136,151)" stroke="rgb(2,136,151)" stroke-width="1" opacity="0.9450980392156862" d="M 688.5 284 L 687.5 286 L 688.5 284 Z " /><path fill="rgb(2,136,151)" stroke="rgb(2,136,151)" stroke-width="1" opacity="0.9450980392156862" d="M 240.5 286 L 237.5 290 L 240.5 286 Z " /><path fill="rgb(2,136,151)" stroke="rgb(2,136,151)" stroke-width="1" opacity="0.9450980392156862" d="M 182.5 287 L 181.5 289 L 182.5 287 Z " /><path fill="rgb(2,136,151)" stroke="rgb(2,136,151)" stroke-width="1" opacity="0.9450980392156862" d="M 684.5 287 L 683.5 289 L 684.5 287 Z " /><path fill="rgb(2,136,151)" stroke="rgb(2,136,151)" stroke-width="1" opacity="0.9450980392156862" d="M 180.5 290 L 183 290.5 L 182.5 292 L 185 292 Q 183.9 294.7 186.5 294 L 186.5 296 L 188 296.5 L 187.5 298 L 189 298.5 L 188.5 300 L 191 300.5 L 191 302.5 Q 190.1 305.5 194.5 304 L 194.5 305 L 193 305.5 L 195 306 Q 193.7 309.3 198.5 308 L 198.5 309 L 197 309.5 L 199 310 Q 197.8 313 201.5 312 L 201.5 314 L 203 314.5 L 202.5 316 L 206 316.5 L 204 317.5 L 207 318.5 L 206.5 320 L 209 320.5 L 208.5 322 L 210.5 322 L 214.5 318 L 211 322.5 L 156.5 388 L 151 386 L 151 384 L 149 384 Q 150.1 381.3 147.5 382 Q 146.4 379.3 143 380 L 143 378 L 141 378 L 141 376 L 139 376 Q 140.1 373.3 137.5 374 L 137.5 372 L 135 371.5 L 135.5 370 L 134 369.5 L 134.5 368 L 129.5 369 L 130 367.5 L 180.5 290 Z " /><path fill="rgb(2,136,151)" stroke="rgb(2,136,151)" stroke-width="1" opacity="0.9450980392156862" d="M 235.5 292 L 233.5 295 L 235.5 292 Z " /><path fill="rgb(2,136,151)" stroke="rgb(2,136,151)" stroke-width="1" opacity="0.9450980392156862" d="M 371.5 292 L 376.5 298 L 371.5 292 Z " /><path fill="rgb(2,136,151)" stroke="rgb(2,136,151)" stroke-width="1" opacity="0.9450980392156862" d="M 231.5 297 L 228.5 301 L 231.5 297 Z " /><path fill="rgb(2,136,151)" stroke="rgb(2,136,151)" stroke-width="1" opacity="0.9450980392156862" d="M 227.5 302 L 224.5 306 L 227.5 302 Z " /><path fill="rgb(2,136,151)" stroke="rgb(2,136,151)" stroke-width="1" opacity="0.9450980392156862" d="M 223.5 307 L 220 311.5 L 215.5 317 L 219 312.5 L 223.5 307 Z " /><path fill="rgb(2,136,151)" stroke="rgb(2,136,151)" stroke-width="1" opacity="0.9450980392156862" d="M 628.5 324 L 627.5 326 L 628.5 324 Z " /><path fill="rgb(2,136,151)" stroke="rgb(2,136,151)" stroke-width="1" opacity="0.9450980392156862" d="M 616.5 331 L 615.5 333 L 616.5 331 Z " /><path fill="rgb(2,136,151)" stroke="rgb(2,136,151)" stroke-width="1" opacity="0.9450980392156862" d="M 600.5 340 L 599.5 342 L 600.5 340 Z " /><path fill="rgb(2,136,151)" stroke="rgb(2,136,151)" stroke-width="1" opacity="0.9450980392156862" d="M 651.5 349 L 649.5 352 L 651.5 349 Z " /><path fill="rgb(2,136,151)" stroke="rgb(2,136,151)" stroke-width="1" opacity="0.9450980392156862" d="M 615.5 351 L 614.5 353 L 598.5 362 L 599.5 360 L 615.5 351 Z " /><path fill="rgb(2,136,151)" stroke="rgb(2,136,151)" stroke-width="1" opacity="0.9450980392156862" d="M 647.5 352 L 644.5 356 L 638.5 360 L 640.5 357 L 647.5 352 Z " /><path fill="rgb(2,136,151)" stroke="rgb(2,136,151)" stroke-width="1" opacity="0.9450980392156862" d="M 636.5 360 L 634.5 363 L 614.5 376 L 615.5 374 L 636.5 360 Z " /><path fill="rgb(2,136,151)" stroke="rgb(2,136,151)" stroke-width="1" opacity="0.9450980392156862" d="M 596.5 362 L 595.5 364 L 589.5 367 L 590.5 365 L 596.5 362 Z " /><path fill="rgb(2,136,151)" stroke="rgb(2,136,151)" stroke-width="1" opacity="0.9450980392156862" d="M 128.5 370 L 127.5 372 L 128.5 370 Z " /><path fill="rgb(2,136,151)" stroke="rgb(2,136,151)" stroke-width="1" opacity="0.9450980392156862" d="M 581.5 370 L 580.5 372 L 581.5 370 Z " /><path fill="rgb(2,136,151)" stroke="rgb(2,136,151)" stroke-width="1" opacity="0.9450980392156862" d="M 572.5 375 L 571.5 377 L 572.5 375 Z " /><path fill="rgb(2,136,151)" stroke="rgb(2,136,151)" stroke-width="1" opacity="0.9450980392156862" d="M 612.5 376 L 611.5 378 L 599.5 385 L 600.5 383 L 612.5 376 Z " /><path fill="rgb(2,136,151)" stroke="rgb(2,136,151)" stroke-width="1" opacity="0.9450980392156862" d="M 128.5 380 L 130.5 383 L 128.5 380 Z " /><path fill="rgb(2,136,151)" stroke="rgb(2,136,151)" stroke-width="1" opacity="0.9450980392156862" d="M 561.5 381 L 560.5 383 L 558.5 384 L 559.5 382 L 561.5 381 Z " /><path fill="rgb(2,136,151)" stroke="rgb(2,136,151)" stroke-width="1" opacity="0.9450980392156862" d="M 554.5 385 L 553.5 387 L 537.5 395 L 538.5 393 L 554.5 385 Z " /><path fill="rgb(2,136,151)" stroke="rgb(2,136,151)" stroke-width="1" opacity="0.9450980392156862" d="M 597.5 385 L 596.5 387 L 590.5 390 L 591.5 388 L 597.5 385 Z " /><path fill="rgb(2,136,151)" stroke="rgb(2,136,151)" stroke-width="1" opacity="0.9450980392156862" d="M 144.5 387 L 148 387.5 L 144.5 388 L 144.5 387 Z " /><path fill="rgb(2,136,151)" stroke="rgb(2,136,151)" stroke-width="1" opacity="0.9450980392156862" d="M 588.5 390 L 587.5 392 L 571.5 400 L 572.5 398 L 588.5 390 Z " /><path fill="rgb(2,136,151)" stroke="rgb(2,136,151)" stroke-width="1" opacity="0.9450980392156862" d="M 531.5 397 L 530.5 399 L 529 399.5 L 531 400.5 L 529 401 L 530 404.5 L 527 408.5 L 527.5 410 L 526 410.5 L 526.5 412 L 525 411.5 L 526 413.5 L 525 415.5 L 525.5 418 L 528 419.5 L 515.5 425 L 479.5 437 L 433.5 449 L 407.5 454 L 408.5 452 L 463.5 430 L 531.5 397 Z " /><path fill="rgb(2,136,151)" stroke="rgb(2,136,151)" stroke-width="1" opacity="0.9450980392156862" d="M 566.5 401 L 568 401.5 L 550.5 410 L 550.5 409 L 566.5 401 Z " /><path fill="rgb(2,136,151)" stroke="rgb(2,136,151)" stroke-width="1" opacity="0.9450980392156862" d="M 547.5 410 L 549 410.5 L 543.5 413 L 543.5 412 L 547.5 410 Z " /><path fill="rgb(2,136,151)" stroke="rgb(2,136,151)" stroke-width="1" opacity="0.9450980392156862" d="M 173.5 412 L 179 412.5 L 173.5 413 L 173.5 412 Z " /><path fill="rgb(2,136,151)" stroke="rgb(2,136,151)" stroke-width="1" opacity="0.9450980392156862" d="M 540.5 413 L 542 413.5 L 534.5 417 L 534.5 416 L 540.5 413 Z " /><path fill="rgb(2,136,151)" stroke="rgb(2,136,151)" stroke-width="1" opacity="0.9450980392156862" d="M 531.5 417 L 533 417.5 L 529.5 419 L 529.5 418 L 531.5 417 Z " /><path fill="rgb(2,136,151)" stroke="rgb(2,136,151)" stroke-width="1" opacity="0.9450980392156862" d="M 265.5 458 L 268 458.5 L 265.5 459 L 265.5 458 Z " /><path fill="rgb(2,136,151)" stroke="rgb(2,136,151)" stroke-width="1" opacity="0.9450980392156862" d="M 243.5 461 L 246 461.5 L 243.5 462 L 243.5 461 Z " /><path fill="rgb(2,136,151)" stroke="rgb(2,136,151)" stroke-width="1" opacity="0.9450980392156862" d="M 224.5 463 L 227 463.5 L 224.5 464 L 224.5 463 Z " /><path fill="rgb(2,136,151)" stroke="rgb(2,136,151)" stroke-width="1" opacity="0.9450980392156862" d="M 210.5 464 L 215 464.5 L 210.5 465 L 210.5 464 Z " /><path fill="rgb(2,136,151)" stroke="rgb(2,136,151)" stroke-width="1" opacity="0.9450980392156862" d="M 166.5 465 L 178 465.5 L 166.5 466 L 166.5 465 Z " /><path fill="rgb(0,0,0)" stroke="rgb(0,0,0)" stroke-width="1" opacity="0.023529411764705882" d="M 613.5 3 Q 617.3 2.3 618 4.5 Q 618.8 6.8 616.5 6 L 614.5 5 L 612 10.5 L 611 20.5 L 608 31.5 Q 604.8 40.3 597.5 45 L 591.5 48 L 573.5 52 L 572 53.5 L 573 57 L 570 55.5 Q 569.5 51.5 572.5 51 L 592.5 46 Q 600 43 604 36.5 L 609 23.5 L 611 8.5 L 613.5 3 Z " /><path fill="rgb(0,0,0)" stroke="rgb(0,0,0)" stroke-width="1" opacity="0.023529411764705882" d="M 618.5 8 L 619 10.5 L 618 10.5 L 618.5 8 Z " /><path fill="rgb(0,0,0)" stroke="rgb(0,0,0)" stroke-width="1" opacity="0.023529411764705882" d="M 619.5 13 L 620 15.5 L 619 15.5 L 619.5 13 Z " /><path fill="rgb(0,0,0)" stroke="rgb(0,0,0)" stroke-width="1" opacity="0.023529411764705882" d="M 441.5 19 L 449.5 19 L 458 26.5 L 518.5 109 Q 522.5 109.5 523 106.5 L 530 95 L 537.5 91 L 543.5 91 L 552 97.5 L 636 209.5 L 641 218 Q 643.7 216.9 643 219.5 L 648.5 226 L 650.5 226 L 659.5 220 L 686 193.5 Q 693.3 187.3 693 173.5 L 690 167 L 677.5 160 L 665.5 158 L 653.5 154 L 648.5 154 L 627.5 147 L 616.5 136 L 615 136 L 614 133.5 L 614 123 L 662.5 123 L 663.5 124 Q 672.8 123.2 678 125 L 679 129.5 L 686.5 137 Q 698.4 143.6 707 153.5 L 713 164.5 L 714 175.5 L 712 184.5 L 707 194.5 L 695 211 L 691 213.5 L 689.5 216 L 686 218.5 Q 686.8 220.8 684.5 220 L 682 224 L 639.5 257 L 573.5 296 L 506.5 328 L 439.5 354 L 363.5 377 L 297.5 392 L 286.5 393 L 274.5 396 L 241.5 399 L 240.5 400 L 227.5 400 L 226.5 401 L 174.5 401 L 173.5 400 L 163.5 400 L 162.5 399 L 151.5 398 L 129.5 392 Q 117.9 387.6 111 378.5 Q 104 370.5 105 354.5 L 110 335.5 L 119 314.5 L 120 304.5 L 118 301.5 L 148.5 275 L 170.5 259 L 173 259 L 177 267.5 L 177 278.5 L 175 283.5 L 177 282.5 L 181.5 275 L 183 275.5 L 190.5 264 Q 192.8 264.8 192 262.5 L 244 184.5 L 253.5 173 L 263.5 170 L 271.5 173 L 304.5 206 L 307.5 207 Q 369.9 121.4 429 32.5 L 439.5 20 L 441.5 19 Z M 444 22 L 442 23 L 436 29 Q 374 122 309 211 Q 304 212 303 209 L 299 205 L 275 180 L 266 174 Q 259 173 256 176 L 230 212 L 130 364 L 127 370 L 127 373 L 125 375 L 125 379 L 135 385 L 151 389 L 156 389 L 163 386 Q 224 314 283 239 Q 287 239 287 242 L 285 242 L 181 371 L 176 376 L 177 377 L 173 381 L 173 383 L 185 383 L 186 384 L 213 384 L 214 383 L 229 383 L 230 382 L 254 381 L 259 379 L 287 376 L 313 370 L 328 368 L 335 365 L 344 364 L 351 361 L 370 357 L 376 354 L 380 354 L 397 348 L 411 345 L 414 343 L 446 333 L 453 329 L 460 328 Q 464 324 473 323 L 480 319 L 483 319 L 492 314 L 513 306 L 563 281 L 562 278 Q 558 276 561 275 L 511 193 Q 505 190 511 187 L 566 278 L 574 282 L 577 282 L 610 264 L 639 246 L 650 237 L 642 223 L 549 99 L 543 94 L 536 95 Q 528 101 524 111 Q 524 115 519 114 L 456 30 L 450 23 L 444 22 Z M 158 310 L 134 339 L 125 358 L 126 361 L 126 360 L 129 358 L 153 321 L 153 319 L 158 312 L 158 310 Z " /><path fill="rgb(0,0,0)" stroke="rgb(0,0,0)" stroke-width="1" opacity="0.023529411764705882" d="M 620.5 19 L 621 21.5 L 620 21.5 L 620.5 19 Z " /><path fill="rgb(0,0,0)" stroke="rgb(0,0,0)" stroke-width="1" opacity="0.023529411764705882" d="M 621.5 23 L 622 25.5 L 621 25.5 L 621.5 23 Z " /><path fill="rgb(0,0,0)" stroke="rgb(0,0,0)" stroke-width="1" opacity="0.023529411764705882" d="M 623.5 31 L 630.5 42 L 636.5 46 L 650.5 50 L 654.5 50 L 659 52.5 Q 660 56.3 657 55 L 655.5 52 L 635.5 47 L 627 40.5 L 623 33.5 L 623.5 31 Z " /><path fill="rgb(0,0,0)" stroke="rgb(0,0,0)" stroke-width="1" opacity="0.023529411764705882" d="M 574.5 57 L 577 57.5 L 574.5 58 L 574.5 57 Z " /><path fill="rgb(0,0,0)" stroke="rgb(0,0,0)" stroke-width="1" opacity="0.023529411764705882" d="M 579.5 58 L 582 58.5 L 579.5 59 L 579.5 58 Z " /><path fill="rgb(0,0,0)" stroke="rgb(0,0,0)" stroke-width="1" opacity="0.023529411764705882" d="M 583.5 59 L 586 59.5 L 583.5 60 L 583.5 59 Z " /><path fill="rgb(0,0,0)" stroke="rgb(0,0,0)" stroke-width="1" opacity="0.023529411764705882" d="M 587.5 60 Q 599.2 61.3 604 69.5 L 611 85.5 L 613 98 Q 617.5 96.5 616 101 Q 612.2 102.5 613 99.5 L 611 96.5 Q 610.5 85.5 607 77.5 Q 604.1 69.4 597.5 65 Q 594 61.5 587.5 61 L 587.5 60 Z " /><path fill="rgb(0,0,0)" stroke="rgb(0,0,0)" stroke-width="1" opacity="0.023529411764705882" d="M 249.5 84 L 378.5 84 L 383 86.5 Q 384.3 91.3 381 90 Q 382.5 86.3 379.5 87 L 378.5 86 L 356.5 86 L 355.5 85 L 302.5 85 L 301.5 86 L 244.5 86 L 243.5 87 L 191.5 89 Q 190 91.5 184.5 90 L 179 93.5 L 178 96.5 L 181.5 101 L 190.5 104 L 200.5 104 L 201.5 105 L 282.5 106 Q 284.3 108.8 290.5 107 L 295 110.5 Q 295.8 114.3 293.5 115 L 287.5 117 L 244.5 119 L 238 123.5 L 238 126.5 L 242.5 131 L 255.5 135 L 271.5 135 L 272.5 136 L 351 136.5 L 269.5 137 L 268.5 136 L 252.5 136 L 247.5 135 Q 240.5 133.5 237 128.5 L 236 123.5 L 239.5 119 L 254.5 116 L 288.5 115 L 293 112.5 L 290.5 109 L 279.5 107 L 198.5 106 L 197.5 105 L 183.5 104 L 177 99.5 L 176 95.5 L 180.5 90 L 193.5 87 L 226.5 86 L 227.5 85 L 248.5 85 L 249.5 84 Z " /><path fill="rgb(0,0,0)" stroke="rgb(0,0,0)" stroke-width="1" opacity="0.023529411764705882" d="M 683.5 89 L 718.5 89 L 719.5 90 L 734.5 91 L 750.5 95 L 771.5 104 L 786.5 114 L 795 122.5 L 803 133.5 L 811 151.5 L 813 159.5 L 813 184.5 L 806 208.5 L 791 236.5 L 777 255.5 L 752.5 281 L 728 301.5 Q 728.8 303.8 726.5 303 L 673.5 350 L 667.5 353 L 626.5 383 L 586.5 406 L 548.5 424 L 516.5 437 L 472.5 451 L 457.5 454 L 450.5 457 L 445.5 457 L 439.5 460 L 415.5 464 L 413.5 464 L 408.5 463 L 401.5 466 L 397.5 466 L 389.5 470 L 381.5 471 L 374.5 474 L 366.5 475 L 360.5 478 L 355.5 478 L 344.5 482 L 339.5 482 L 321.5 486 L 317.5 488 L 304.5 489 L 279.5 495 L 271.5 495 L 264.5 497 L 255.5 497 L 254.5 498 L 246.5 498 L 245.5 499 L 237.5 499 L 227.5 501 L 213.5 501 L 212.5 502 L 162.5 502 L 161.5 501 L 151.5 501 L 150.5 500 L 142.5 500 L 141.5 499 L 133.5 499 L 132.5 498 L 121.5 497 L 89.5 489 L 63.5 478 L 43 463.5 L 41.5 461 L 34 454.5 L 24 441.5 L 15 421.5 L 13 413.5 L 13 404.5 L 12 403.5 L 12 390.5 L 17 368.5 L 28 344.5 Q 46.2 314.7 72.5 293 L 92.5 278 L 103.5 271 L 109.5 269 L 117.5 263 L 140.5 254 L 160.5 253 L 169 257.5 L 132.5 279 L 99.5 304 Q 87.5 308.5 78.5 316 L 55 338.5 Q 42.6 352.6 35 371.5 L 31 387.5 L 31 408.5 Q 37.5 438 58.5 453 L 84.5 468 L 112.5 477 L 134.5 481 L 149.5 482 L 150.5 483 L 160.5 483 L 161.5 484 L 209.5 484 L 210.5 483 L 225.5 483 L 226.5 482 L 237.5 482 L 238.5 481 L 271.5 478 L 277.5 476 L 310.5 471 L 315.5 469 L 320.5 469 L 386.5 452 L 454.5 429 Q 456 431.5 457.5 428 L 459.5 427 L 461.5 427 L 466.5 425 L 469 425.5 L 458.5 432 L 410.5 451 L 407 453.5 L 409.5 454 L 416.5 452 L 416 453.5 Q 415.5 457.5 418.5 458 L 436.5 456 L 469.5 448 L 516.5 433 Q 557.4 417.9 593.5 398 Q 666.5 358 721 299.5 Q 727 294.5 729 285.5 Q 726.7 284.3 728 279.5 L 729 277 L 743 266 Q 741.9 263.3 744.5 264 L 772 232.5 L 786 209.5 L 794 186.5 L 795 181.5 L 795 165.5 L 791 150.5 L 778 131 L 762.5 120 L 748.5 114 L 728.5 110 L 707.5 110 L 689.5 115 L 648.5 116 L 647.5 117 L 631.5 118 L 614 121 Q 615.8 111.9 622.5 107 L 636.5 99 L 651.5 94 L 657.5 94 L 666.5 91 L 682.5 90 L 683.5 89 Z " /><path fill="rgb(0,0,0)" stroke="rgb(0,0,0)" stroke-width="1" opacity="0.023529411764705882" d="M 365.5 117 L 364.5 119 L 365.5 117 Z " /><path fill="rgb(0,0,0)" stroke="rgb(0,0,0)" stroke-width="1" opacity="0.023529411764705882" d="M 447.5 132 L 451 134.5 L 481 170.5 L 481 175.5 L 434 246.5 L 428 259.5 L 431.5 261 L 435.5 258 L 434 260.5 L 431 267 L 426.5 268 L 423 265.5 L 423 259.5 L 429 248.5 L 478 174.5 L 474 167.5 L 448.5 137 L 445.5 136 L 443 137.5 L 447.5 132 Z " /><path fill="rgb(0,0,0)" stroke="rgb(0,0,0)" stroke-width="1" opacity="0.023529411764705882" d="M 442.5 139 L 441.5 141 L 442.5 139 Z " /><path fill="rgb(0,0,0)" stroke="rgb(0,0,0)" stroke-width="1" opacity="0.023529411764705882" d="M 159.5 140 L 341.5 140 L 346 143.5 Q 346.8 145.8 344.5 145 L 341.5 142 L 154.5 142 L 153.5 143 L 134.5 144 Q 126.5 146.5 122 152.5 L 121 158.5 L 123.5 161 L 131.5 164 L 328 164.5 L 130.5 165 L 125.5 164 L 120 160.5 L 119 155.5 Q 120.6 148.6 126.5 146 L 140.5 141 L 158.5 141 L 159.5 140 Z " /><path fill="rgb(0,0,0)" stroke="rgb(0,0,0)" stroke-width="1" opacity="0.023529411764705882" d="M 440.5 142 L 439.5 144 L 440.5 142 Z " /><path fill="rgb(0,0,0)" stroke="rgb(0,0,0)" stroke-width="1" opacity="0.023529411764705882" d="M 438.5 145 L 437.5 147 L 438.5 145 Z " /><path fill="rgb(0,0,0)" stroke="rgb(0,0,0)" stroke-width="1" opacity="0.023529411764705882" d="M 436.5 148 L 435.5 150 L 436.5 148 Z " /><path fill="rgb(0,0,0)" stroke="rgb(0,0,0)" stroke-width="1" opacity="0.023529411764705882" d="M 434.5 151 L 433.5 153 L 434.5 151 Z " /><path fill="rgb(0,0,0)" stroke="rgb(0,0,0)" stroke-width="1" opacity="0.023529411764705882" d="M 429.5 158 L 428.5 160 L 429.5 158 Z " /><path fill="rgb(0,0,0)" stroke="rgb(0,0,0)" stroke-width="1" opacity="0.023529411764705882" d="M 427.5 161 L 426.5 163 L 427.5 161 Z " /><path fill="rgb(0,0,0)" stroke="rgb(0,0,0)" stroke-width="1" opacity="0.023529411764705882" d="M 425.5 164 L 424.5 166 L 425.5 164 Z " /><path fill="rgb(0,0,0)" stroke="rgb(0,0,0)" stroke-width="1" opacity="0.023529411764705882" d="M 423.5 167 L 422.5 169 L 423.5 167 Z " /><path fill="rgb(0,0,0)" stroke="rgb(0,0,0)" stroke-width="1" opacity="0.023529411764705882" d="M 421.5 170 L 420.5 172 L 421.5 170 Z " /><path fill="rgb(0,0,0)" stroke="rgb(0,0,0)" stroke-width="1" opacity="0.023529411764705882" d="M 419.5 173 L 418.5 175 L 419.5 173 Z " /><path fill="rgb(0,0,0)" stroke="rgb(0,0,0)" stroke-width="1" opacity="0.023529411764705882" d="M 417.5 176 L 416.5 178 L 417.5 176 Z " /><path fill="rgb(0,0,0)" stroke="rgb(0,0,0)" stroke-width="1" opacity="0.023529411764705882" d="M 415.5 179 L 414.5 181 L 415.5 179 Z " /><path fill="rgb(0,0,0)" stroke="rgb(0,0,0)" stroke-width="1" opacity="0.023529411764705882" d="M 413.5 182 L 412.5 184 L 413.5 182 Z " /><path fill="rgb(0,0,0)" stroke="rgb(0,0,0)" stroke-width="1" opacity="0.023529411764705882" d="M 406.5 192 L 405.5 194 L 406.5 192 Z " /><path fill="rgb(0,0,0)" stroke="rgb(0,0,0)" stroke-width="1" opacity="0.023529411764705882" d="M 404.5 195 L 403.5 197 L 404.5 195 Z " /><path fill="rgb(0,0,0)" stroke="rgb(0,0,0)" stroke-width="1" opacity="0.023529411764705882" d="M 402.5 198 L 401.5 200 L 402.5 198 Z " /><path fill="rgb(0,0,0)" stroke="rgb(0,0,0)" stroke-width="1" opacity="0.023529411764705882" d="M 400.5 201 L 399.5 203 L 400.5 201 Z " /><path fill="rgb(0,0,0)" stroke="rgb(0,0,0)" stroke-width="1" opacity="0.023529411764705882" d="M 398.5 204 L 397.5 206 L 398.5 204 Z " /><path fill="rgb(0,0,0)" stroke="rgb(0,0,0)" stroke-width="1" opacity="0.023529411764705882" d="M 396.5 207 L 395.5 209 L 396.5 207 Z " /><path fill="rgb(0,0,0)" stroke="rgb(0,0,0)" stroke-width="1" opacity="0.023529411764705882" d="M 394.5 210 L 393.5 212 L 394.5 210 Z " /><path fill="rgb(0,0,0)" stroke="rgb(0,0,0)" stroke-width="1" opacity="0.023529411764705882" d="M 392.5 213 L 391.5 215 L 392.5 213 Z " /><path fill="rgb(0,0,0)" stroke="rgb(0,0,0)" stroke-width="1" opacity="0.023529411764705882" d="M 390.5 216 L 389.5 218 L 390.5 216 Z " /><path fill="rgb(0,0,0)" stroke="rgb(0,0,0)" stroke-width="1" opacity="0.023529411764705882" d="M 388.5 219 L 387.5 221 L 388.5 219 Z " /><path fill="rgb(0,0,0)" stroke="rgb(0,0,0)" stroke-width="1" opacity="0.023529411764705882" d="M 379.5 232 L 378.5 234 L 379.5 232 Z " /><path fill="rgb(0,0,0)" stroke="rgb(0,0,0)" stroke-width="1" opacity="0.023529411764705882" d="M 377.5 235 L 376.5 237 L 377.5 235 Z " /><path fill="rgb(0,0,0)" stroke="rgb(0,0,0)" stroke-width="1" opacity="0.023529411764705882" d="M 375.5 238 L 374.5 240 L 375.5 238 Z " /><path fill="rgb(0,0,0)" stroke="rgb(0,0,0)" stroke-width="1" opacity="0.023529411764705882" d="M 373.5 241 L 372.5 243 L 373.5 241 Z " /><path fill="rgb(0,0,0)" stroke="rgb(0,0,0)" stroke-width="1" opacity="0.023529411764705882" d="M 288.5 242 L 289.5 244 L 288.5 242 Z " /><path fill="rgb(0,0,0)" stroke="rgb(0,0,0)" stroke-width="1" opacity="0.023529411764705882" d="M 291.5 244 L 292.5 246 L 291.5 244 Z " /><path fill="rgb(0,0,0)" stroke="rgb(0,0,0)" stroke-width="1" opacity="0.023529411764705882" d="M 371.5 244 L 370.5 246 L 371.5 244 Z " /><path fill="rgb(0,0,0)" stroke="rgb(0,0,0)" stroke-width="1" opacity="0.023529411764705882" d="M 369.5 247 L 368.5 249 L 369.5 247 Z " /><path fill="rgb(0,0,0)" stroke="rgb(0,0,0)" stroke-width="1" opacity="0.023529411764705882" d="M 298.5 249 L 299.5 251 L 298.5 249 Z " /><path fill="rgb(0,0,0)" stroke="rgb(0,0,0)" stroke-width="1" opacity="0.023529411764705882" d="M 367.5 250 L 366.5 252 L 367.5 250 Z " /><path fill="rgb(0,0,0)" stroke="rgb(0,0,0)" stroke-width="1" opacity="0.023529411764705882" d="M 301.5 251 L 302.5 253 L 301.5 251 Z " /><path fill="rgb(0,0,0)" stroke="rgb(0,0,0)" stroke-width="1" opacity="0.023529411764705882" d="M 365.5 253 L 364.5 255 L 365.5 253 Z " /><path fill="rgb(0,0,0)" stroke="rgb(0,0,0)" stroke-width="1" opacity="0.023529411764705882" d="M 308.5 256 L 309.5 258 L 308.5 256 Z " /><path fill="rgb(0,0,0)" stroke="rgb(0,0,0)" stroke-width="1" opacity="0.023529411764705882" d="M 363.5 256 L 362.5 258 L 363.5 256 Z " /><path fill="rgb(0,0,0)" stroke="rgb(0,0,0)" stroke-width="1" opacity="0.023529411764705882" d="M 311.5 258 L 312.5 260 L 311.5 258 Z " /><path fill="rgb(0,0,0)" stroke="rgb(0,0,0)" stroke-width="1" opacity="0.023529411764705882" d="M 361.5 259 L 361 260.5 L 361 264.5 L 395 300.5 Q 398.9 303.1 398 310.5 Q 397 314 391.5 313 L 384.5 305 L 389.5 307 L 391 303.5 L 384 293.5 L 359 267.5 L 358 263.5 L 361.5 259 Z " /><path fill="rgb(0,0,0)" stroke="rgb(0,0,0)" stroke-width="1" opacity="0.023529411764705882" d="M 315.5 261 L 316.5 263 L 315.5 261 Z " /><path fill="rgb(0,0,0)" stroke="rgb(0,0,0)" stroke-width="1" opacity="0.023529411764705882" d="M 318.5 263 L 319.5 265 L 318.5 263 Z " /><path fill="rgb(0,0,0)" stroke="rgb(0,0,0)" stroke-width="1" opacity="0.023529411764705882" d="M 325.5 268 L 326.5 270 L 325.5 268 Z " /><path fill="rgb(0,0,0)" stroke="rgb(0,0,0)" stroke-width="1" opacity="0.023529411764705882" d="M 328.5 270 L 329.5 272 L 328.5 270 Z " /><path fill="rgb(0,0,0)" stroke="rgb(0,0,0)" stroke-width="1" opacity="0.023529411764705882" d="M 332.5 273 L 333.5 275 L 332.5 273 Z " /><path fill="rgb(0,0,0)" stroke="rgb(0,0,0)" stroke-width="1" opacity="0.023529411764705882" d="M 335.5 275 L 336.5 277 L 335.5 275 Z " /><path fill="rgb(0,0,0)" stroke="rgb(0,0,0)" stroke-width="1" opacity="0.023529411764705882" d="M 342.5 280 L 343.5 282 L 342.5 280 Z " /><path fill="rgb(0,0,0)" stroke="rgb(0,0,0)" stroke-width="1" opacity="0.023529411764705882" d="M 345.5 282 L 346.5 284 L 345.5 282 Z " /><path fill="rgb(0,0,0)" stroke="rgb(0,0,0)" stroke-width="1" opacity="0.023529411764705882" d="M 349.5 285 L 350.5 287 L 349.5 285 Z " /><path fill="rgb(0,0,0)" stroke="rgb(0,0,0)" stroke-width="1" opacity="0.023529411764705882" d="M 352.5 287 L 353.5 289 L 352.5 287 Z " /><path fill="rgb(0,0,0)" stroke="rgb(0,0,0)" stroke-width="1" opacity="0.023529411764705882" d="M 356.5 290 L 357.5 292 L 356.5 290 Z " /><path fill="rgb(0,0,0)" stroke="rgb(0,0,0)" stroke-width="1" opacity="0.023529411764705882" d="M 359.5 292 L 360.5 294 L 359.5 292 Z " /><path fill="rgb(0,0,0)" stroke="rgb(0,0,0)" stroke-width="1" opacity="0.023529411764705882" d="M 362.5 294 L 363.5 296 L 362.5 294 Z " /><path fill="rgb(0,0,0)" stroke="rgb(0,0,0)" stroke-width="1" opacity="0.023529411764705882" d="M 366.5 297 L 367.5 299 L 366.5 297 Z " /><path fill="rgb(0,0,0)" stroke="rgb(0,0,0)" stroke-width="1" opacity="0.023529411764705882" d="M 369.5 299 L 370.5 301 L 369.5 299 Z " /><path fill="rgb(0,0,0)" stroke="rgb(0,0,0)" stroke-width="1" opacity="0.023529411764705882" d="M 376.5 304 L 377.5 306 L 376.5 304 Z " /><path fill="rgb(11,216,149)" stroke="rgb(11,216,149)" stroke-width="1" opacity="0.9921568627450981" d="M 256.5 180 L 262.5 181 L 313 231.5 L 365.5 287 L 371 291.5 L 392 314.5 L 389.5 313 L 284.5 239 L 279.5 237 L 250.5 274 Q 248.3 273.3 249 275.5 L 210.5 322 L 208 321.5 L 208.5 320 L 206 319.5 L 206.5 318 L 204 317.5 L 206 316.5 L 202 315.5 L 202.5 314 L 201 313.5 L 201.5 312 L 199 312 Q 200.1 309.3 197.5 310 L 197.5 309 L 199 308.5 L 195 308 Q 196.1 305.3 193.5 306 L 193.5 305 L 195 304.5 L 191 304 L 190 301.5 L 190.5 300 L 188 299.5 L 188.5 298 L 187 297.5 L 187.5 296 L 186 295.5 L 186.5 294 Q 183.9 294.7 185 292 L 182.5 292 L 182.5 290 L 181 289.5 L 253.5 181 L 256.5 180 Z " /><path fill="rgb(11,216,149)" stroke="rgb(11,216,149)" stroke-width="1" opacity="0.9921568627450981" d="M 101.5 238 Q 112.6 236.4 116 242.5 Q 119 245.5 118 252.5 L 113.5 259 Q 110.2 262.2 102.5 261 L 97 258 L 94 251.5 L 94 247.5 L 98.5 240 L 101.5 238 Z " /><path fill="rgb(11,216,149)" stroke="rgb(11,216,149)" stroke-width="1" opacity="0.9921568627450981" d="M 585.5 300 L 584.5 302 L 585.5 300 Z " /><path fill="rgb(11,216,149)" stroke="rgb(11,216,149)" stroke-width="1" opacity="0.9921568627450981" d="M 560.5 313 L 560.5 316 L 559 315.5 Q 558.3 317.8 560.5 317 L 560.5 320 L 559 319.5 Q 558.3 321.8 560.5 321 L 560.5 324 L 559 323.5 Q 558.3 325.8 560.5 325 L 560.5 328 L 559 327.5 Q 558.3 329.8 560.5 329 L 560.5 332 L 559 331.5 Q 558.3 333.8 560.5 333 L 560.5 336 L 559 335.5 Q 558.3 337.8 560.5 337 L 560.5 340 L 559 339.5 Q 558.3 341.8 560.5 341 L 560.5 344 L 559 343.5 Q 558.3 345.8 560.5 345 L 560.5 348 L 559 347.5 Q 558.3 349.8 560.5 349 L 560.5 352 L 559 351.5 Q 558.3 353.8 560.5 353 L 560.5 356 L 559 355.5 Q 558.3 357.8 560.5 357 L 560.5 360 L 559 359.5 L 560 361.5 L 515.5 383 L 467.5 403 L 426.5 418 L 365.5 437 L 363.5 437 L 311.5 450 L 277.5 456 L 277.5 455 L 279 454.5 L 277 453.5 L 279 452.5 L 277 451.5 L 279 450.5 L 277 449.5 L 279 448.5 L 277 447.5 L 279 446.5 L 277 445.5 L 279 444.5 L 277 443.5 L 279 442.5 L 277 441.5 L 279 440.5 L 277 439.5 L 279 438.5 L 277 437.5 L 279 436.5 L 277 435.5 L 279 434.5 L 277 433.5 L 279 432.5 L 277 431.5 L 279 430.5 L 277 429.5 L 279 428.5 L 277 427.5 L 279 426.5 L 277 425.5 L 279 424.5 L 277 423.5 L 279 422.5 L 277 421.5 L 279 420.5 L 277 419.5 L 279 418.5 L 277 417.5 L 279 416.5 L 277 415.5 L 279 414.5 L 277 413.5 L 279 412.5 L 277 411.5 L 279 410.5 L 277 409.5 L 279 408.5 L 277 407.5 L 283.5 405 L 294.5 404 L 337.5 395 L 415.5 373 L 492.5 345 L 531.5 328 L 560.5 313 Z " /><path fill="rgb(11,216,149)" stroke="rgb(11,216,149)" stroke-width="1" opacity="0.9921568627450981" d="M 592.5 344 L 591.5 346 L 592.5 344 Z " /><path fill="rgb(11,216,149)" stroke="rgb(11,216,149)" stroke-width="1" opacity="0.9921568627450981" d="M 621.5 349 L 625.5 349 L 636 349.5 L 631.5 354 L 630.5 353 Q 627.8 358.4 625 356.5 Q 625.8 358.8 623.5 358 L 621 358.5 Q 621.8 360.8 619.5 360 L 614 363 L 613.5 365 L 611.5 365 L 610 365.5 L 610.5 367 L 606 367.5 L 608 368.5 L 603 369.5 L 603.5 371 L 600 371 L 600 373 L 597 373 Q 598.3 376 594.5 375 L 590.5 378 L 589 377.5 Q 589.8 380.1 586.5 379 L 576.5 385 L 573 385 Q 574.4 388.7 568.5 387 L 568.5 389 L 563.5 389 Q 564.5 392 559.5 391 L 559.5 393 L 557.5 393 L 548.5 397 L 547 396.5 L 547 398 L 542.5 398 L 542 400 L 539.5 400 L 529 404 Q 527.5 400.3 530.5 401 L 530.5 400 L 529 399.5 L 621.5 349 Z " /><path fill="rgb(11,216,149)" stroke="rgb(11,216,149)" stroke-width="1" opacity="0.9921568627450981" d="M 569.5 356 L 568.5 358 L 569.5 356 Z " /></svg>